<?xml version="1.0" standalone="no"?>
<!DOCTYPE svg PUBLIC "-//W3C//DTD SVG 20010904//EN"
        "http://www.w3.org/TR/2001/REC-SVG-20010904/DTD/svg10.dtd">
<svg version="1.0" xmlns="http://www.w3.org/2000/svg"
 width="2172.000000pt" height="400.000000pt" viewBox="0 0 2172.000000 400.000000"
 preserveAspectRatio="xMidYMid meet">
<g transform="translate(0.000000,400.000000) scale(0.100000,-0.100000)"
   fill="#000000" stroke="none">
<path fill="#4775B8" stroke="#4775B8" d="M2703 3066 c-13 -7 -31 -19 -40 -28 -10 -8 -35 -22 -55 -32 -20 -9
-40 -21 -44 -27 -3 -6 -17 -14 -31 -20 -13 -5 -22 -13 -18 -18 8 -13 83 -63
120 -80 17 -7 37 -17 45 -22 8 -5 34 -18 57 -29 23 -11 45 -24 48 -30 3 -5 23
-17 43 -27 20 -10 53 -28 72 -41 19 -13 54 -32 77 -43 23 -10 45 -23 48 -29 3
-6 26 -19 50 -30 24 -11 47 -25 50 -31 4 -5 18 -14 31 -19 l24 -10 0 -395 c0
-217 4 -395 8 -395 13 0 71 30 77 40 3 4 34 23 70 41 36 18 71 40 79 48 12 13
15 84 17 407 1 215 -1 396 -5 403 -4 6 -27 20 -51 31 -24 11 -46 24 -50 30 -3
5 -35 23 -70 40 -35 17 -67 35 -70 40 -4 6 -26 19 -50 30 -24 11 -47 24 -50
30 -3 6 -25 19 -48 29 -23 11 -58 30 -77 43 -19 13 -52 31 -72 41 -20 10 -40
22 -43 27 -10 16 -67 40 -94 39 -14 -1 -36 -7 -48 -13z"/>
<path fill="#4775B8" stroke="#4775B8" d="M2405 2882 c-11 -2 -29 -12 -40 -21 -11 -10 -46 -30 -77 -45 -32 -15
-60 -32 -63 -37 -4 -5 -26 -18 -50 -29 -24 -11 -47 -24 -50 -30 -3 -5 -23 -17
-43 -27 -20 -10 -53 -28 -72 -41 -19 -13 -54 -32 -77 -43 -23 -10 -45 -23 -48
-29 -3 -5 -23 -18 -43 -28 -20 -10 -54 -28 -74 -41 l-38 -23 0 -142 c0 -79 2
-145 5 -148 9 -8 102 41 109 57 3 8 25 23 50 34 25 12 47 25 51 31 3 5 35 23
70 40 35 17 67 35 70 40 4 6 26 19 50 30 24 11 46 24 50 29 3 5 31 22 63 37
31 15 65 34 74 42 9 8 36 24 60 36 45 23 63 20 105 -16 10 -8 35 -22 55 -32
20 -9 40 -21 43 -26 3 -5 23 -17 43 -27 20 -10 53 -28 72 -41 19 -13 54 -32
77 -43 23 -10 45 -23 48 -29 3 -6 26 -19 50 -30 24 -11 46 -24 50 -29 3 -5 31
-22 63 -37 31 -15 67 -37 80 -48 l23 -20 -3 149 c-3 143 -4 150 -25 161 -13 6
-31 17 -40 26 -10 8 -44 27 -75 42 -32 15 -60 32 -63 37 -4 5 -26 18 -50 29
-24 11 -47 24 -50 30 -3 5 -23 17 -43 27 -20 10 -53 28 -72 41 -19 13 -54 32
-77 43 -23 10 -48 27 -55 36 -19 26 -110 70 -133 65z"/>
<path d="M6285 2704 c-98 -23 -153 -52 -204 -106 -66 -71 -96 -191 -78 -311
23 -150 109 -225 327 -282 190 -49 220 -70 220 -150 0 -54 -15 -77 -66 -104
-74 -37 -243 -16 -383 50 -46 21 -87 36 -92 33 -5 -3 -9 -57 -9 -119 0 -130
-6 -121 103 -156 98 -32 205 -49 300 -49 189 0 310 59 372 181 31 61 48 186
35 263 -26 162 -108 228 -354 286 -154 36 -197 58 -210 111 -34 137 190 182
426 85 31 -13 61 -20 68 -16 7 4 10 45 8 121 l-3 113 -90 23 c-87 23 -320 39
-370 27z"/>
<path d="M9675 2704 c-170 -25 -322 -130 -394 -273 -95 -186 -95 -454 -2 -639
112 -222 385 -332 647 -262 62 17 146 50 163 66 5 4 1 227 -4 233 -3 2 -22 -7
-42 -21 -109 -72 -279 -95 -373 -51 -115 53 -170 153 -178 323 -13 299 146
458 398 396 70 -18 85 -24 141 -58 25 -15 48 -28 51 -28 7 0 18 209 11 226 -6
16 -42 35 -128 65 -59 20 -219 33 -290 23z"/>
<path d="M14925 2704 c-212 -31 -368 -178 -421 -399 -21 -88 -24 -285 -5 -375
30 -144 127 -288 235 -349 90 -50 182 -71 300 -67 160 6 255 44 352 141 103
102 148 221 160 415 18 305 -120 544 -355 616 -48 14 -213 26 -266 18z m160
-225 c57 -16 99 -52 133 -117 42 -80 56 -160 50 -297 -5 -107 -7 -118 -44
-192 -33 -65 -47 -82 -88 -108 -43 -26 -58 -30 -120 -29 -80 0 -114 14 -163
66 -102 107 -123 405 -40 564 51 97 162 143 272 113z"/>
<path d="M5183 2678 c-5 -7 -82 -233 -171 -503 -90 -269 -167 -499 -172 -510
-22 -49 -40 -119 -32 -127 5 -5 67 -7 137 -6 l129 3 31 100 32 100 207 3 c190
2 207 1 214 -15 4 -10 18 -56 32 -103 l25 -85 129 -3 c71 -1 133 1 137 5 6 7
-356 1111 -375 1141 -10 17 -310 17 -323 0z m232 -492 c36 -114 65 -211 65
-216 0 -13 -257 -13 -265 -1 -3 5 1 29 9 53 15 46 100 317 111 356 4 13 9 22
11 19 3 -2 34 -97 69 -211z"/>
<path d="M6910 2680 c0 -5 81 -145 180 -310 99 -166 187 -315 196 -333 14 -26
16 -64 13 -266 l-4 -236 135 0 135 0 5 250 5 250 192 320 c106 176 189 323
185 327 -5 5 -71 7 -147 6 l-139 -3 -111 -194 c-62 -107 -116 -196 -121 -198
-5 -1 -56 81 -114 184 -58 102 -111 192 -118 200 -16 16 -292 19 -292 3z"/>
<path d="M8080 2683 c0 -5 -1 -264 -2 -578 l-2 -570 129 0 130 0 -4 376 c-2
214 0 378 5 382 8 4 53 -86 303 -616 l70 -148 148 3 148 3 0 575 0 575 -125 0
-125 0 -2 -379 c-1 -208 -4 -380 -6 -383 -3 -2 -16 20 -30 49 -13 29 -90 192
-171 362 -80 169 -146 311 -146 315 0 5 -8 15 -18 24 -15 14 -42 17 -160 17
-78 0 -142 -3 -142 -7z"/>
<path d="M10573 2678 c-17 -21 -384 -1129 -377 -1139 3 -5 61 -9 130 -9 l124
0 15 33 c8 17 24 65 36 105 l22 72 210 -2 210 -3 26 -92 c14 -51 31 -97 37
-103 14 -14 270 -9 267 5 -2 6 -88 264 -192 575 l-189 565 -155 3 c-116 2
-157 -1 -164 -10z m231 -498 c31 -102 59 -193 62 -202 5 -17 -6 -18 -130 -18
-121 0 -136 2 -136 17 0 9 28 106 62 215 48 151 65 195 74 185 6 -6 37 -95 68
-197z"/>
<path d="M11415 2678 c-3 -7 -4 -267 -3 -578 l3 -565 130 0 130 0 3 198 2 197
103 0 c300 1 446 97 476 312 19 139 -17 266 -99 342 -97 91 -168 106 -503 106
-181 0 -239 -3 -242 -12z m501 -232 c46 -28 67 -70 67 -136 0 -66 -21 -108
-67 -136 -25 -15 -51 -19 -131 -19 l-100 0 -3 159 -3 158 103 -4 c77 -3 111
-8 134 -22z"/>
<path d="M12455 2678 c-3 -7 -4 -267 -3 -578 l3 -565 133 -3 132 -3 0 581 0
580 -130 0 c-95 0 -132 -3 -135 -12z"/>
<path d="M13575 2678 c-3 -7 -4 -267 -3 -578 l3 -565 130 0 130 0 3 243 2 242
204 0 c162 0 206 3 215 14 8 9 11 48 9 112 l-3 99 -210 5 -210 5 0 100 0 100
225 5 225 5 3 90 c2 50 0 100 -3 113 l-5 22 -356 0 c-274 0 -356 -3 -359 -12z"/>
<path d="M15755 2679 c-3 -8 -4 -268 -3 -579 l3 -565 130 0 130 0 3 218 2 217
64 0 c112 0 142 -34 251 -285 l64 -150 136 -3 c105 -2 137 0 140 11 8 20 -161
385 -205 443 -21 28 -52 57 -68 65 -35 17 -32 26 18 56 102 62 151 186 128
327 -17 111 -77 185 -184 227 -55 21 -77 23 -331 27 -223 3 -274 2 -278 -9z
m447 -219 c56 -16 82 -59 82 -136 0 -102 -36 -136 -155 -149 -113 -12 -109
-17 -109 151 l0 144 73 0 c39 0 89 -5 109 -10z"/>
<path d="M16853 2678 c-5 -8 -9 -252 -8 -578 l0 -565 125 0 125 0 5 410 5 410
47 -120 c26 -66 78 -201 116 -300 l69 -180 80 -3 c56 -2 83 1 90 10 5 7 56
134 112 282 56 148 109 278 117 290 15 19 16 -16 12 -389 l-3 -410 125 0 125
0 0 575 0 575 -169 0 -168 0 -28 -70 c-15 -38 -67 -175 -115 -303 -49 -127
-92 -229 -96 -225 -7 7 -135 340 -196 508 -14 39 -30 76 -35 83 -8 9 -54 12
-168 12 -114 0 -160 -3 -167 -12z"/>
<path d="M18520 2688 c0 -2 -86 -259 -190 -571 -105 -313 -190 -573 -190 -578
0 -6 54 -8 131 -7 150 3 137 -5 170 108 12 41 27 81 32 88 7 9 62 12 213 12
l203 0 21 -72 c12 -40 28 -88 36 -106 l14 -33 127 3 128 3 -1 25 c-2 30 -362
1100 -376 1118 -8 9 -53 12 -164 12 -85 0 -154 -1 -154 -2z m229 -493 c34
-110 61 -208 61 -217 0 -16 -13 -18 -136 -18 -124 0 -135 1 -130 18 76 251
136 426 141 420 2 -2 30 -93 64 -203z"/>
<path stroke="#4775B8" d="M19114 2677 c-2 -7 -3 -58 -2 -113 l3 -99 167 -3 c161 -2 167 -3 174
-24 3 -12 5 -220 3 -462 l-4 -441 135 0 135 0 3 458 c2 355 5 457 15 457 6 1
80 1 163 0 120 -1 153 2 163 14 8 9 11 48 9 117 l-3 104 -478 3 c-390 2 -478
0 -483 -11z"/>
<path fill="#4775B8" stroke="#4775B8" d="M3519 2632 c0 -4 0 -183 1 -397 2 -437 8 -402 -72 -439 -20 -9 -40
-21 -43 -26 -3 -6 -26 -19 -50 -30 -24 -11 -47 -24 -50 -30 -3 -6 -25 -19 -48
-29 -23 -11 -58 -30 -77 -43 -19 -13 -52 -31 -72 -41 -20 -10 -40 -22 -43 -27
-3 -5 -23 -17 -43 -26 -20 -10 -45 -24 -54 -32 -10 -8 -37 -24 -60 -36 -54
-27 -58 -47 -16 -65 18 -8 40 -20 48 -26 8 -7 46 -29 84 -49 67 -36 70 -36
102 -21 18 8 36 20 39 25 3 6 26 19 50 30 24 11 46 24 50 30 3 5 35 23 70 40
35 17 67 35 70 40 4 6 26 19 50 30 24 11 46 24 50 30 3 5 35 23 70 40 35 17
67 35 70 40 3 5 23 17 43 27 20 9 49 25 64 35 l27 19 1 394 0 395 -44 20 c-25
11 -48 24 -51 30 -3 6 -26 19 -50 30 -24 11 -46 24 -50 29 -8 13 -65 41 -66
33z"/>
<path fill="#4775B8" stroke="#4775B8" d="M2390 2475 c-7 -9 -33 -25 -56 -35 -24 -11 -46 -24 -49 -30 -3 -6
-25 -19 -48 -29 -23 -11 -58 -30 -77 -43 -19 -13 -52 -31 -72 -41 -20 -10 -40
-22 -43 -27 -3 -5 -23 -17 -43 -27 -20 -9 -55 -28 -77 -42 -22 -14 -68 -40
-102 -57 -35 -17 -70 -37 -78 -44 -13 -11 -15 -67 -15 -406 l0 -394 23 -9 c12
-5 38 -20 57 -33 19 -13 52 -31 72 -41 20 -10 40 -22 44 -28 5 -9 53 -31 63
-30 3 1 3 178 2 394 -3 447 -12 402 91 451 32 15 60 32 63 37 4 5 26 18 50 29
24 11 46 24 50 30 3 5 35 23 70 40 35 17 67 35 70 40 4 6 26 19 50 30 24 11
46 24 50 30 3 5 34 23 69 40 35 16 69 37 76 45 7 8 20 15 29 16 14 0 14 1 1 7
-8 4 -33 19 -55 33 -22 14 -57 33 -77 42 -20 10 -40 22 -43 27 -6 9 -63 40
-75 40 -4 0 -13 -7 -20 -15z"/>
<path d="M12932 1988 l3 -113 195 -3 c107 -1 205 0 218 3 22 5 23 8 20 113
l-3 107 -218 3 -218 2 3 -112z"/>
<path fill="#4775B8" stroke="#4775B8" d="M2290 2015 c-7 -8 -41 -29 -75 -45 -34 -16 -68 -37 -75 -45 -7 -8
-18 -15 -25 -15 -32 0 -34 -28 -36 -418 l-1 -392 33 -23 c19 -12 51 -30 71
-40 20 -10 40 -22 43 -27 3 -6 26 -19 50 -30 24 -11 47 -24 50 -30 3 -6 25
-19 48 -29 23 -11 58 -30 77 -43 19 -13 52 -31 72 -41 20 -10 40 -22 43 -27 3
-6 26 -19 50 -30 24 -11 46 -24 50 -29 9 -15 66 -41 90 -41 24 0 81 26 90 41
4 5 26 18 50 29 24 11 47 25 50 31 4 5 18 14 32 20 13 5 22 13 18 18 -8 14
-94 71 -106 71 -5 0 -26 10 -47 23 -20 13 -54 31 -74 40 -20 10 -40 22 -43 27
-3 6 -26 19 -50 30 -24 11 -47 24 -50 30 -3 6 -26 19 -50 30 -24 11 -46 24
-50 30 -3 5 -35 23 -70 40 -35 17 -67 35 -71 41 -3 6 -17 14 -30 19 l-24 10 0
395 c0 329 -2 395 -14 395 -7 0 -19 -7 -26 -15z"/>
<path fill="#4775B8" stroke="#4775B8" d="M3738 1583 c-16 -8 -28 -18 -28 -24 0 -5 -6 -9 -14 -9 -7 0 -19 -7
-26 -15 -7 -9 -33 -25 -56 -35 -24 -11 -45 -24 -49 -30 -3 -5 -35 -23 -70 -40
-35 -17 -67 -35 -70 -40 -4 -6 -26 -19 -50 -30 -24 -11 -46 -24 -50 -29 -3 -5
-31 -22 -63 -37 -31 -15 -65 -34 -74 -42 -9 -8 -36 -24 -60 -36 -45 -23 -63
-20 -105 16 -10 8 -35 22 -55 32 -20 9 -40 21 -43 26 -3 5 -35 23 -70 40 -35
17 -67 35 -70 40 -4 6 -26 19 -50 30 -24 11 -47 24 -50 30 -3 6 -26 19 -50 30
-24 11 -46 24 -50 29 -3 5 -31 22 -63 37 -31 15 -67 37 -80 48 l-23 20 3 -149
c3 -143 4 -150 25 -161 13 -6 31 -17 40 -26 10 -8 35 -22 55 -32 20 -9 40 -21
43 -26 3 -6 26 -19 50 -30 24 -11 47 -24 50 -30 3 -5 23 -17 43 -27 20 -9 55
-29 77 -43 22 -14 57 -34 77 -43 20 -10 40 -22 43 -27 3 -6 26 -19 49 -30 24
-11 46 -26 49 -34 3 -8 18 -20 34 -28 31 -15 57 -5 150 55 24 15 45 27 47 27
3 0 22 12 43 26 21 14 57 34 80 45 23 10 45 23 48 29 3 6 26 19 50 30 24 11
47 24 50 30 3 6 26 19 50 30 24 11 47 24 50 30 3 5 23 18 43 28 20 10 54 28
75 41 l37 23 0 143 c0 79 -3 146 -7 148 -5 2 -20 -3 -35 -10z"/>
<path fill="#4775B8" stroke="#4775B8" d="M4854 865 c-3 -8 -3 -19 1 -25 4 -7 2343 -10 7686 -10 l7679 0 0 25
0 25 -7680 0 c-6705 0 -7681 -2 -7686 -15z"/>
</g>
</svg>
